<svg xmlns="http://www.w3.org/2000/svg" xmlns:xlink="http://www.w3.org/1999/xlink" width="500" zoomAndPan="magnify" viewBox="0 0 375 374.999991" height="500" preserveAspectRatio="xMidYMid meet" version="1.0"><defs><clipPath id="214c0b3a82"><path d="M 13 17 L 365 17 L 365 368.296875 L 13 368.296875 Z M 13 17 " clip-rule="nonzero"/></clipPath><clipPath id="26c9d098a4"><path d="M 73 278 L 374.738281 278 L 374.738281 374.644531 L 73 374.644531 Z M 73 278 " clip-rule="nonzero"/></clipPath></defs><rect x="-37.5" width="450" fill="#ffffff" y="-37.499999" height="449.999989" fill-opacity="1"/><rect x="-37.5" width="450" fill="#ffffff" y="-37.499999" height="449.999989" fill-opacity="1"/><path fill="#d8e3ff" d="M 362.445312 192.789062 C 362.445312 288.5625 284.859375 366.230469 189.082031 366.261719 C 93.308594 366.289062 15.640625 288.671875 15.609375 192.894531 C 15.582031 97.121094 93.199219 19.453125 188.976562 19.421875 L 189.023438 19.421875 C 284.785156 19.421875 362.417969 97.035156 362.445312 192.789062 Z M 362.445312 192.789062 " fill-opacity="1" fill-rule="nonzero"/><g clip-path="url(#214c0b3a82)"><path fill="#ffffff" d="M 189.023438 368.058594 C 184.722656 368.058594 180.425781 367.898438 176.136719 367.582031 C 171.847656 367.265625 167.574219 366.792969 163.320312 366.164062 C 159.0625 365.53125 154.835938 364.746094 150.640625 363.800781 C 146.441406 362.859375 142.285156 361.765625 138.167969 360.515625 C 134.050781 359.265625 129.988281 357.867188 125.972656 356.320312 C 121.960938 354.773438 118.007812 353.078125 114.121094 351.238281 C 110.230469 349.402344 106.414062 347.421875 102.671875 345.300781 C 98.929688 343.179688 95.269531 340.925781 91.691406 338.535156 C 88.117188 336.148438 84.632812 333.628906 81.238281 330.984375 C 77.847656 328.335938 74.558594 325.570312 71.371094 322.679688 C 68.183594 319.792969 65.105469 316.789062 62.140625 313.675781 C 59.171875 310.558594 56.324219 307.339844 53.59375 304.015625 C 50.867188 300.6875 48.261719 297.269531 45.785156 293.75 C 43.308594 290.234375 40.964844 286.632812 38.75 282.941406 C 36.539062 279.253906 34.464844 275.484375 32.53125 271.644531 C 30.597656 267.800781 28.804688 263.894531 27.160156 259.917969 C 25.511719 255.945312 24.011719 251.917969 22.664062 247.832031 C 21.3125 243.746094 20.117188 239.617188 19.070312 235.445312 C 18.023438 231.273438 17.132812 227.066406 16.394531 222.828125 C 15.660156 218.589844 15.082031 214.332031 14.660156 210.050781 C 14.234375 205.769531 13.972656 201.480469 13.863281 197.179688 C 13.757812 192.878906 13.8125 188.578125 14.019531 184.28125 C 14.230469 179.984375 14.597656 175.703125 15.125 171.433594 C 15.652344 167.164062 16.332031 162.917969 17.171875 158.699219 C 18.007812 154.480469 19 150.296875 20.148438 146.152344 C 21.292969 142.003906 22.589844 137.90625 24.039062 133.855469 C 25.488281 129.804688 27.082031 125.8125 28.824219 121.878906 C 30.566406 117.945312 32.453125 114.082031 34.480469 110.289062 C 36.507812 106.496094 38.671875 102.78125 40.96875 99.144531 C 43.269531 95.511719 45.703125 91.964844 48.265625 88.507812 C 50.824219 85.050781 53.511719 81.695312 56.320312 78.4375 C 59.128906 75.179688 62.054688 72.027344 65.09375 68.984375 C 67.121094 66.957031 69.195312 64.980469 71.320312 63.054688 C 73.445312 61.128906 75.617188 59.253906 77.832031 57.433594 C 80.046875 55.613281 82.308594 53.851562 84.609375 52.140625 C 86.914062 50.433594 89.253906 48.78125 91.640625 47.1875 C 94.023438 45.59375 96.445312 44.058594 98.902344 42.585938 C 101.363281 41.109375 103.855469 39.695312 106.386719 38.34375 C 108.914062 36.992188 111.472656 35.699219 114.066406 34.472656 C 116.65625 33.246094 119.277344 32.085938 121.925781 30.988281 C 124.574219 29.886719 127.25 28.855469 129.949219 27.890625 C 132.648438 26.921875 135.371094 26.023438 138.113281 25.1875 C 140.859375 24.355469 143.621094 23.589844 146.402344 22.894531 C 149.183594 22.195312 151.980469 21.566406 154.792969 21.007812 C 157.605469 20.445312 160.429688 19.953125 163.265625 19.53125 C 166.101562 19.113281 168.949219 18.757812 171.800781 18.476562 C 174.65625 18.195312 177.515625 17.984375 180.378906 17.84375 C 183.242188 17.699219 186.109375 17.628906 188.976562 17.628906 C 191.84375 17.628906 194.707031 17.699219 197.574219 17.835938 C 200.4375 17.976562 203.296875 18.1875 206.148438 18.46875 C 209.003906 18.746094 211.847656 19.097656 214.683594 19.515625 C 217.523438 19.9375 220.347656 20.425781 223.160156 20.984375 C 225.972656 21.542969 228.769531 22.171875 231.550781 22.867188 C 234.332031 23.5625 237.097656 24.328125 239.839844 25.15625 C 242.585938 25.988281 245.308594 26.886719 248.007812 27.851562 C 250.707031 28.820312 253.382812 29.847656 256.03125 30.945312 C 258.679688 32.042969 261.300781 33.203125 263.894531 34.429688 C 266.488281 35.652344 269.046875 36.941406 271.578125 38.292969 C 274.105469 39.644531 276.601562 41.054688 279.0625 42.53125 C 281.523438 44.003906 283.945312 45.535156 286.328125 47.128906 C 288.714844 48.722656 291.058594 50.371094 293.363281 52.078125 C 295.664062 53.785156 297.925781 55.546875 300.144531 57.367188 C 302.359375 59.1875 304.53125 61.058594 306.65625 62.984375 C 308.78125 64.90625 310.859375 66.882812 312.886719 68.910156 C 314.914062 70.9375 316.894531 73.011719 318.820312 75.136719 C 320.746094 77.261719 322.617188 79.429688 324.4375 81.648438 C 326.257812 83.863281 328.023438 86.125 329.730469 88.425781 C 331.441406 90.730469 333.09375 93.070312 334.6875 95.457031 C 336.28125 97.839844 337.8125 100.261719 339.289062 102.71875 C 340.765625 105.179688 342.175781 107.671875 343.53125 110.203125 C 344.882812 112.730469 346.171875 115.289062 347.398438 117.882812 C 348.625 120.472656 349.789062 123.09375 350.886719 125.742188 C 351.984375 128.390625 353.015625 131.066406 353.984375 133.765625 C 354.949219 136.464844 355.851562 139.1875 356.683594 141.929688 C 357.515625 144.675781 358.28125 147.4375 358.980469 150.21875 C 359.679688 153 360.308594 155.796875 360.867188 158.609375 C 361.425781 161.421875 361.917969 164.246094 362.339844 167.082031 C 362.761719 169.917969 363.113281 172.765625 363.394531 175.617188 C 363.675781 178.472656 363.890625 181.328125 364.03125 184.195312 C 364.171875 187.058594 364.242188 189.925781 364.246094 192.792969 C 364.246094 195.660156 364.175781 198.523438 364.035156 201.390625 C 363.894531 204.253906 363.6875 207.113281 363.40625 209.964844 C 363.125 212.820312 362.777344 215.664062 362.355469 218.5 C 361.9375 221.339844 361.445312 224.164062 360.886719 226.976562 C 360.328125 229.789062 359.703125 232.585938 359.007812 235.367188 C 358.3125 238.148438 357.546875 240.910156 356.714844 243.65625 C 355.882812 246.402344 354.984375 249.121094 354.019531 251.824219 C 353.054688 254.523438 352.023438 257.199219 350.925781 259.847656 C 349.832031 262.496094 348.671875 265.117188 347.445312 267.710938 C 346.21875 270.304688 344.929688 272.863281 343.582031 275.394531 C 342.230469 277.921875 340.816406 280.417969 339.34375 282.878906 C 337.871094 285.339844 336.335938 287.761719 334.746094 290.144531 C 333.152344 292.53125 331.503906 294.875 329.796875 297.179688 C 328.085938 299.480469 326.324219 301.742188 324.507812 303.960938 C 322.6875 306.175781 320.816406 308.347656 318.890625 310.472656 C 316.964844 312.597656 314.988281 314.675781 312.960938 316.703125 C 308.914062 320.773438 304.675781 324.636719 300.25 328.289062 C 295.820312 331.941406 291.222656 335.363281 286.453125 338.5625 C 281.683594 341.757812 276.769531 344.714844 271.710938 347.425781 C 266.652344 350.136719 261.46875 352.589844 256.167969 354.789062 C 250.863281 356.988281 245.464844 358.917969 239.96875 360.582031 C 234.476562 362.246094 228.914062 363.636719 223.28125 364.75 C 217.652344 365.863281 211.976562 366.695312 206.265625 367.25 C 200.550781 367.800781 194.824219 368.070312 189.082031 368.058594 Z M 189.023438 21.222656 C 184.808594 21.222656 180.601562 21.375 176.398438 21.6875 C 172.195312 21.996094 168.007812 22.460938 163.839844 23.082031 C 159.671875 23.699219 155.53125 24.46875 151.417969 25.394531 C 147.304688 26.316406 143.234375 27.390625 139.199219 28.613281 C 135.167969 29.839844 131.183594 31.210938 127.253906 32.726562 C 123.320312 34.242188 119.449219 35.902344 115.640625 37.707031 C 111.832031 39.507812 108.09375 41.449219 104.425781 43.527344 C 100.757812 45.605469 97.171875 47.8125 93.667969 50.15625 C 90.164062 52.496094 86.753906 54.964844 83.429688 57.558594 C 80.109375 60.152344 76.886719 62.863281 73.761719 65.695312 C 70.640625 68.523438 67.625 71.46875 64.71875 74.519531 C 61.816406 77.574219 59.023438 80.726562 56.351562 83.988281 C 53.679688 87.246094 51.128906 90.597656 48.703125 94.042969 C 46.277344 97.488281 43.980469 101.019531 41.8125 104.636719 C 39.648438 108.25 37.617188 111.941406 35.722656 115.707031 C 33.828125 119.472656 32.074219 123.300781 30.464844 127.195312 C 28.851562 131.089844 27.382812 135.035156 26.0625 139.039062 C 24.742188 143.039062 23.570312 147.085938 22.546875 151.175781 C 21.523438 155.261719 20.652344 159.382812 19.933594 163.535156 C 19.210938 167.6875 18.644531 171.863281 18.234375 176.058594 C 17.820312 180.25 17.5625 184.457031 17.460938 188.667969 C 17.359375 192.882812 17.410156 197.09375 17.621094 201.304688 C 17.828125 205.511719 18.1875 209.707031 18.707031 213.890625 C 19.222656 218.074219 19.894531 222.230469 20.714844 226.367188 C 21.539062 230.5 22.511719 234.597656 23.636719 238.65625 C 24.761719 242.71875 26.035156 246.734375 27.457031 250.703125 C 28.878906 254.671875 30.441406 258.582031 32.152344 262.433594 C 33.859375 266.285156 35.707031 270.070312 37.695312 273.785156 C 39.683594 277.503906 41.804688 281.140625 44.0625 284.703125 C 46.316406 288.261719 48.703125 291.734375 51.210938 295.117188 C 53.722656 298.503906 56.355469 301.789062 59.109375 304.980469 C 61.863281 308.171875 64.730469 311.257812 67.714844 314.234375 C 71.675781 318.21875 75.828125 322 80.167969 325.570312 C 84.503906 329.144531 89.011719 332.496094 93.679688 335.625 C 98.347656 338.75 103.160156 341.640625 108.117188 344.292969 C 113.074219 346.945312 118.148438 349.34375 123.339844 351.496094 C 128.53125 353.644531 133.820312 355.535156 139.199219 357.160156 C 144.578125 358.789062 150.027344 360.144531 155.539062 361.234375 C 161.054688 362.324219 166.609375 363.136719 172.203125 363.675781 C 177.796875 364.214844 183.40625 364.476562 189.023438 364.460938 L 189.082031 364.460938 C 191.890625 364.460938 194.699219 364.390625 197.503906 364.253906 C 200.308594 364.113281 203.109375 363.90625 205.902344 363.628906 C 208.699219 363.355469 211.484375 363.007812 214.265625 362.597656 C 217.042969 362.183594 219.808594 361.703125 222.5625 361.152344 C 225.316406 360.605469 228.058594 359.988281 230.78125 359.304688 C 233.507812 358.621094 236.210938 357.871094 238.898438 357.054688 C 241.585938 356.242188 244.253906 355.359375 246.898438 354.410156 C 249.542969 353.464844 252.160156 352.453125 254.753906 351.378906 C 257.351562 350.300781 259.917969 349.164062 262.457031 347.960938 C 264.992188 346.761719 267.5 345.496094 269.976562 344.171875 C 272.453125 342.847656 274.898438 341.460938 277.304688 340.019531 C 279.714844 338.574219 282.085938 337.070312 284.421875 335.507812 C 286.757812 333.949219 289.050781 332.332031 291.308594 330.65625 C 293.5625 328.984375 295.777344 327.253906 297.945312 325.472656 C 300.117188 323.691406 302.242188 321.855469 304.324219 319.96875 C 306.402344 318.082031 308.4375 316.144531 310.421875 314.15625 C 312.40625 312.171875 314.34375 310.136719 316.226562 308.054688 C 318.113281 305.972656 319.945312 303.847656 321.726562 301.675781 C 323.507812 299.503906 325.234375 297.289062 326.910156 295.03125 C 328.582031 292.777344 330.195312 290.480469 331.757812 288.144531 C 333.316406 285.808594 334.816406 283.4375 336.261719 281.027344 C 337.703125 278.617188 339.085938 276.171875 340.410156 273.695312 C 341.734375 271.21875 342.996094 268.710938 344.195312 266.171875 C 345.394531 263.628906 346.53125 261.0625 347.605469 258.46875 C 348.679688 255.871094 349.691406 253.253906 350.636719 250.609375 C 351.582031 247.964844 352.460938 245.296875 353.277344 242.609375 C 354.089844 239.921875 354.835938 237.214844 355.519531 234.488281 C 356.199219 231.765625 356.816406 229.023438 357.363281 226.269531 C 357.910156 223.515625 358.386719 220.75 358.800781 217.96875 C 359.210938 215.191406 359.554688 212.40625 359.828125 209.609375 C 360.101562 206.8125 360.308594 204.015625 360.445312 201.207031 C 360.582031 198.402344 360.648438 195.597656 360.648438 192.789062 C 360.648438 189.980469 360.578125 187.171875 360.441406 184.367188 C 360.300781 181.5625 360.09375 178.761719 359.816406 175.96875 C 359.542969 173.175781 359.199219 170.386719 358.785156 167.609375 C 358.371094 164.832031 357.890625 162.066406 357.34375 159.3125 C 356.792969 156.558594 356.179688 153.820312 355.496094 151.097656 C 354.8125 148.371094 354.0625 145.667969 353.246094 142.980469 C 352.429688 140.292969 351.550781 137.628906 350.601562 134.984375 C 349.65625 132.339844 348.644531 129.71875 347.570312 127.125 C 346.496094 124.53125 345.355469 121.964844 344.15625 119.425781 C 342.953125 116.890625 341.691406 114.382812 340.367188 111.90625 C 339.042969 109.429688 337.660156 106.988281 336.214844 104.578125 C 334.769531 102.171875 333.269531 99.796875 331.707031 97.464844 C 330.148438 95.128906 328.53125 92.835938 326.855469 90.578125 C 325.183594 88.324219 323.457031 86.109375 321.671875 83.941406 C 319.890625 81.769531 318.058594 79.644531 316.171875 77.566406 C 314.285156 75.484375 312.347656 73.453125 310.363281 71.464844 C 308.378906 69.480469 306.34375 67.546875 304.261719 65.660156 C 302.179688 63.773438 300.054688 61.941406 297.882812 60.160156 C 295.714844 58.378906 293.5 56.652344 291.246094 54.980469 C 288.988281 53.304688 286.691406 51.691406 284.359375 50.128906 C 282.023438 48.570312 279.652344 47.070312 277.242188 45.625 C 274.832031 44.183594 272.390625 42.800781 269.914062 41.476562 C 267.4375 40.152344 264.929688 38.890625 262.390625 37.691406 C 259.851562 36.488281 257.285156 35.351562 254.691406 34.277344 C 252.097656 33.203125 249.476562 32.191406 246.832031 31.246094 C 244.1875 30.300781 241.523438 29.421875 238.835938 28.605469 C 236.148438 27.792969 233.441406 27.042969 230.71875 26.359375 C 227.992188 25.679688 225.253906 25.0625 222.5 24.515625 C 219.746094 23.96875 216.980469 23.488281 214.203125 23.078125 C 211.425781 22.664062 208.636719 22.320312 205.84375 22.046875 C 203.050781 21.769531 200.25 21.566406 197.445312 21.425781 C 194.640625 21.289062 191.832031 21.222656 189.023438 21.222656 Z M 189.023438 21.222656 " fill-opacity="1" fill-rule="nonzero"/></g><g clip-path="url(#26c9d098a4)"><path fill="#504b8e" d="M 345.320312 307.988281 L 344.292969 306.425781 C 344.1875 306.253906 332.671875 289.121094 306.992188 281.808594 C 281.953125 274.671875 265.613281 280.660156 226.125 295.164062 C 224.089844 295.917969 221.90625 296.679688 219.632812 297.476562 C 208.042969 301.53125 194.472656 306.289062 184.28125 314.292969 C 184.035156 314.53125 183.761719 314.75 183.476562 314.933594 C 179.511719 318.175781 176.105469 321.9375 173.582031 326.375 C 173.226562 327.007812 173.441406 327.554688 173.683594 327.910156 C 173.910156 328.214844 174.488281 328.710938 175.242188 328.578125 C 179.421875 327.851562 184.152344 327.035156 189.207031 326.066406 C 236.644531 316.992188 265.625 326.101562 262.851562 326.101562 C 244.875 326.109375 213.742188 331.785156 191.007812 335.929688 C 185.914062 336.859375 181.164062 337.722656 176.964844 338.457031 C 172.542969 339.195312 168.113281 337.410156 165.492188 333.679688 C 162.894531 329.996094 162.660156 325.304688 164.863281 321.421875 C 166.664062 318.242188 168.820312 315.359375 171.230469 312.742188 C 156.335938 307.804688 123.300781 297.792969 100.332031 297.792969 C 100.039062 297.792969 99.753906 297.792969 99.46875 297.792969 C 85.402344 297.953125 77.773438 304.402344 73.859375 309.785156 C 73.378906 310.433594 73.476562 311.097656 73.574219 311.429688 C 73.671875 311.773438 73.957031 312.386719 74.738281 312.691406 L 201.0625 361.867188 C 202.453125 362.40625 203.875 362.519531 205.300781 362.222656 C 227.320312 357.535156 279.664062 346.632812 290.101562 346.632812 C 300.949219 346.632812 351.039062 366.386719 371.375 374.597656 L 374.988281 316.625 L 345.320312 307.988281 " fill-opacity="1" fill-rule="nonzero"/></g><path fill="#504b8e" d="M 86.089844 151.953125 C 90.09375 153.117188 94.234375 150.773438 95.378906 146.785156 C 108.429688 100.984375 152.15625 72.074219 199.367188 78.046875 C 241.238281 83.308594 274.496094 116.117188 281.589844 156.824219 L 271.984375 149.648438 C 268.648438 147.167969 263.929688 147.855469 261.460938 151.179688 C 258.972656 154.5 259.660156 159.214844 262.980469 161.703125 L 286.792969 179.488281 C 288.101562 180.460938 289.679688 180.980469 291.292969 180.980469 C 291.65625 180.980469 292.011719 180.957031 292.371094 180.902344 C 294.351562 180.617188 296.121094 179.5625 297.316406 177.960938 L 315.09375 154.152344 C 317.582031 150.824219 316.898438 146.113281 313.578125 143.628906 C 310.25 141.140625 305.527344 141.835938 303.054688 145.15625 L 296.410156 154.046875 C 288.3125 106.472656 250.484375 69.316406 201.246094 63.125 C 146.65625 56.230469 96.015625 89.667969 80.90625 142.664062 C 79.773438 146.65625 82.09375 150.820312 86.089844 151.953125 " fill-opacity="1" fill-rule="nonzero"/><path fill="#504b8e" d="M 174.144531 283.457031 C 178.914062 284.058594 183.652344 284.355469 188.34375 284.355469 C 237.335938 284.355469 280.703125 252.257812 294.484375 203.90625 C 295.621094 199.910156 293.300781 195.75 289.308594 194.617188 C 285.292969 193.472656 281.164062 195.804688 280.015625 199.785156 C 266.972656 245.578125 223.191406 274.464844 176.027344 268.535156 C 134.253906 263.273438 101.050781 230.613281 93.855469 190.046875 L 103.054688 197.21875 C 106.324219 199.773438 111.042969 199.183594 113.609375 195.917969 C 116.15625 192.640625 115.578125 187.917969 112.296875 185.363281 L 88.867188 167.089844 C 85.585938 164.515625 80.871094 165.121094 78.3125 168.390625 L 60.035156 191.820312 C 57.488281 195.09375 58.066406 199.820312 61.34375 202.375 C 62.714844 203.445312 64.339844 203.964844 65.957031 203.964844 C 68.199219 203.964844 70.414062 202.96875 71.898438 201.070312 L 78.910156 192.082031 C 86.847656 239.871094 124.753906 277.238281 174.144531 283.457031 " fill-opacity="1" fill-rule="nonzero"/><path fill="#504b8e" d="M 170.847656 153.457031 C 170.984375 154.863281 171.296875 156.265625 171.804688 157.738281 C 172.226562 158.839844 173.011719 159.976562 174.070312 160.972656 C 175.398438 162.285156 177.210938 163.496094 179.699219 164.777344 C 180.804688 165.324219 182.144531 165.808594 183.734375 166.21875 L 183.734375 137.929688 C 180.011719 138.730469 177.125 140.230469 174.96875 142.472656 C 171.992188 145.609375 170.632812 149.214844 170.847656 153.457031 " fill-opacity="1" fill-rule="nonzero"/><path fill="#504b8e" d="M 199.585938 183.796875 L 199.585938 208.777344 C 200.425781 208.527344 201.160156 208.238281 201.765625 207.902344 C 203.960938 206.726562 205.15625 205.585938 205.78125 204.832031 C 206.554688 203.84375 207.152344 202.75 207.464844 201.722656 C 208.03125 200.003906 208.054688 199.292969 208.054688 199.21875 C 208.054688 199.183594 208.054688 199.148438 208.054688 199.109375 C 208.171875 193.828125 207.152344 189.886719 205.015625 187.398438 C 203.753906 185.964844 201.933594 184.757812 199.585938 183.796875 " fill-opacity="1" fill-rule="nonzero"/><path fill="#504b8e" d="M 222.328125 199.695312 C 221.945312 205.246094 219.546875 210.550781 215.21875 215.324219 C 211.597656 219.335938 206.347656 221.964844 199.585938 223.152344 L 199.585938 225.734375 C 199.585938 228.34375 198.515625 230.558594 196.578125 231.976562 C 195.070312 233.09375 193.316406 233.695312 191.535156 233.695312 C 189.695312 233.695312 187.921875 233.054688 186.433594 231.84375 C 185.171875 230.785156 183.753906 228.925781 183.753906 225.734375 L 183.753906 223.402344 C 176.78125 222.589844 170.601562 220.511719 165.347656 217.207031 C 158.519531 212.839844 154.289062 206.488281 152.773438 198.3125 C 152.070312 195.539062 153.261719 193.519531 154.035156 192.589844 C 154.820312 191.644531 156.609375 190.09375 159.84375 190.328125 C 163.679688 190.433594 166.578125 192.902344 167.03125 196.597656 C 167.8125 199.734375 169.878906 202.769531 173.265625 205.324219 C 175.800781 207.242188 179.316406 208.542969 183.753906 209.207031 L 183.734375 180.839844 C 176.476562 179.707031 170.425781 177.152344 165.707031 173.210938 C 160.105469 168.335938 156.855469 162.03125 155.984375 154.40625 C 155.59375 150.175781 156.148438 146.125 157.648438 142.242188 C 159.234375 138.382812 161.46875 135.105469 164.335938 132.390625 C 167.125 129.671875 170.640625 127.507812 175.015625 125.832031 C 177.820312 124.800781 180.695312 124.082031 183.734375 123.660156 L 183.734375 120.859375 C 183.734375 117.914062 185.042969 116.054688 186.148438 115.019531 C 189.457031 112.144531 193.628906 112.269531 196.734375 114.746094 C 198.65625 116.449219 199.585938 118.554688 199.585938 120.859375 L 199.585938 124.488281 C 205.105469 125.839844 209.804688 128.414062 213.59375 132.183594 C 218.558594 137.074219 221.191406 143.640625 221.40625 151.683594 C 221.417969 152.082031 221.378906 152.484375 221.289062 152.882812 C 220.488281 156.566406 218.007812 159.007812 214.660156 159.417969 C 210.609375 159.929688 207.511719 157.214844 207.015625 153.042969 C 206.859375 151.269531 206.496094 149.5625 205.929688 147.789062 C 205.410156 146.238281 204.597656 144.757812 203.597656 143.582031 C 202.441406 142.175781 201.109375 140.945312 199.585938 139.878906 L 199.585938 168.832031 C 203.617188 169.867188 206.933594 171.242188 209.667969 173.003906 C 213.097656 175.132812 215.921875 177.789062 218 180.839844 C 220.015625 184.019531 221.289062 187.253906 221.835938 190.578125 C 222.445312 193.730469 222.601562 196.746094 222.328125 199.695312 Z M 186.84375 101.929688 C 147.433594 102.308594 115.792969 134.558594 116.175781 173.972656 C 116.546875 213.378906 148.800781 245.015625 188.207031 244.644531 C 227.617188 244.265625 259.253906 212.015625 258.875 172.605469 C 258.5 133.195312 226.246094 101.5625 186.84375 101.929688 " fill-opacity="1" fill-rule="nonzero"/></svg>