<svg xmlns="http://www.w3.org/2000/svg" xmlns:xlink="http://www.w3.org/1999/xlink" width="365" zoomAndPan="magnify" viewBox="0 0 273.75 67.499998" height="90" preserveAspectRatio="xMidYMid meet" version="1.0"><defs><g/><clipPath id="ae7a0e5653"><path d="M 3 2 L 67 2 L 67 65.785156 L 3 65.785156 Z M 3 2 " clip-rule="nonzero"/></clipPath><clipPath id="dad298de02"><path d="M 3 1 L 68 1 L 68 65.785156 L 3 65.785156 Z M 3 1 " clip-rule="nonzero"/></clipPath><clipPath id="f95266d1f2"><path d="M 14 49 L 69.074219 49 L 69.074219 66.9375 L 14 66.9375 Z M 14 49 " clip-rule="nonzero"/></clipPath><clipPath id="c08088dea5"><path d="M 11.34375 28 L 55 28 L 55 51 L 11.34375 51 Z M 11.34375 28 " clip-rule="nonzero"/></clipPath></defs><g fill="#504b8e" fill-opacity="1"><g transform="translate(99.855304, 44.697372)"><g><path d="M 19.96875 -28.953125 L 19.96875 -25.125 L 6.53125 -25.125 L 6.53125 -17.234375 L 18.5 -17.234375 L 18.5 -13.28125 L 6.53125 -13.28125 L 6.53125 -3.96875 L 19.96875 -3.96875 L 19.96875 0 L 2.28125 0 L 2.28125 -28.953125 Z M 19.96875 -28.953125 "/></g></g></g><g fill="#504b8e" fill-opacity="1"><g transform="translate(122.273058, 44.697372)"><g><path d="M 20.5 0 L 15.6875 0 L 10.65625 -6.859375 L 5.59375 0 L 0.78125 0 L 8.25 -10.125 L 1.3125 -19.5625 L 6.125 -19.5625 L 10.65625 -13.4375 L 15.15625 -19.5625 L 19.96875 -19.5625 L 13.0625 -10.125 Z M 20.5 0 "/></g></g></g><g fill="#504b8e" fill-opacity="1"><g transform="translate(143.424959, 44.697372)"><g><path d="M 2.28125 8.09375 L 2.28125 -19.5625 L 5.4375 -19.5625 L 6.25 -17.515625 C 7.039062 -18.304688 7.945312 -18.921875 8.96875 -19.359375 C 9.988281 -19.796875 11.140625 -20.015625 12.421875 -20.015625 C 13.773438 -20.015625 15.03125 -19.75 16.1875 -19.21875 C 17.351562 -18.6875 18.359375 -17.957031 19.203125 -17.03125 C 20.046875 -16.101562 20.703125 -15.015625 21.171875 -13.765625 C 21.648438 -12.515625 21.890625 -11.179688 21.890625 -9.765625 C 21.890625 -8.347656 21.648438 -7.007812 21.171875 -5.75 C 20.703125 -4.5 20.046875 -3.410156 19.203125 -2.484375 C 18.359375 -1.566406 17.351562 -0.84375 16.1875 -0.3125 C 15.03125 0.21875 13.773438 0.484375 12.421875 0.484375 C 11.085938 0.484375 9.914062 0.257812 8.90625 -0.1875 C 7.894531 -0.632812 7.007812 -1.28125 6.25 -2.125 L 6.25 8.09375 Z M 12.09375 -16.421875 C 11.300781 -16.421875 10.550781 -16.289062 9.84375 -16.03125 C 9.132812 -15.769531 8.515625 -15.359375 7.984375 -14.796875 C 7.453125 -14.242188 7.035156 -13.550781 6.734375 -12.71875 C 6.441406 -11.894531 6.296875 -10.910156 6.296875 -9.765625 C 6.296875 -8.535156 6.441406 -7.488281 6.734375 -6.625 C 7.035156 -5.769531 7.453125 -5.078125 7.984375 -4.546875 C 8.515625 -4.015625 9.132812 -3.625 9.84375 -3.375 C 10.550781 -3.132812 11.300781 -3.015625 12.09375 -3.015625 C 12.882812 -3.015625 13.628906 -3.191406 14.328125 -3.546875 C 15.035156 -3.898438 15.648438 -4.382812 16.171875 -5 C 16.691406 -5.613281 17.097656 -6.328125 17.390625 -7.140625 C 17.691406 -7.960938 17.84375 -8.835938 17.84375 -9.765625 C 17.84375 -10.691406 17.691406 -11.5625 17.390625 -12.375 C 17.097656 -13.1875 16.691406 -13.890625 16.171875 -14.484375 C 15.648438 -15.085938 15.035156 -15.5625 14.328125 -15.90625 C 13.628906 -16.25 12.882812 -16.421875 12.09375 -16.421875 Z M 12.09375 -16.421875 "/></g></g></g><g fill="#504b8e" fill-opacity="1"><g transform="translate(166.455214, 44.697372)"><g><path d="M 11.5625 0.484375 C 10.144531 0.484375 8.816406 0.21875 7.578125 -0.3125 C 6.335938 -0.84375 5.253906 -1.566406 4.328125 -2.484375 C 3.398438 -3.410156 2.671875 -4.5 2.140625 -5.75 C 1.609375 -7.007812 1.34375 -8.347656 1.34375 -9.765625 C 1.34375 -11.179688 1.59375 -12.515625 2.09375 -13.765625 C 2.601562 -15.015625 3.285156 -16.101562 4.140625 -17.03125 C 5.003906 -17.957031 6.003906 -18.6875 7.140625 -19.21875 C 8.285156 -19.75 9.515625 -20.015625 10.828125 -20.015625 C 12.160156 -20.015625 13.390625 -19.78125 14.515625 -19.3125 C 15.648438 -18.851562 16.628906 -18.132812 17.453125 -17.15625 C 18.285156 -16.175781 18.929688 -14.929688 19.390625 -13.421875 C 19.859375 -11.910156 20.09375 -10.101562 20.09375 -8 L 5.5625 -8 C 5.75 -7.289062 6.046875 -6.628906 6.453125 -6.015625 C 6.859375 -5.410156 7.335938 -4.878906 7.890625 -4.421875 C 8.453125 -3.972656 9.082031 -3.625 9.78125 -3.375 C 10.476562 -3.132812 11.207031 -3.015625 11.96875 -3.015625 C 13 -3.015625 13.957031 -3.207031 14.84375 -3.59375 C 15.726562 -3.976562 16.484375 -4.484375 17.109375 -5.109375 L 19.5625 -2.65625 C 18.613281 -1.695312 17.453125 -0.929688 16.078125 -0.359375 C 14.703125 0.203125 13.195312 0.484375 11.5625 0.484375 Z M 10.828125 -16.421875 C 10.203125 -16.421875 9.609375 -16.296875 9.046875 -16.046875 C 8.484375 -15.804688 7.960938 -15.46875 7.484375 -15.03125 C 7.015625 -14.59375 6.609375 -14.070312 6.265625 -13.46875 C 5.929688 -12.875 5.679688 -12.222656 5.515625 -11.515625 L 15.84375 -11.515625 C 15.789062 -12.171875 15.640625 -12.796875 15.390625 -13.390625 C 15.148438 -13.992188 14.8125 -14.519531 14.375 -14.96875 C 13.9375 -15.414062 13.425781 -15.769531 12.84375 -16.03125 C 12.257812 -16.289062 11.585938 -16.421875 10.828125 -16.421875 Z M 10.828125 -16.421875 "/></g></g></g><g fill="#504b8e" fill-opacity="1"><g transform="translate(188.097122, 44.697372)"><g><path d="M 6.171875 0 L 2.203125 0 L 2.203125 -19.5625 L 5.34375 -19.5625 L 6.171875 -17.84375 C 6.816406 -18.46875 7.601562 -18.984375 8.53125 -19.390625 C 9.457031 -19.804688 10.46875 -20.015625 11.5625 -20.015625 C 12.269531 -20.015625 13.070312 -19.90625 13.96875 -19.6875 C 14.863281 -19.46875 15.695312 -19.054688 16.46875 -18.453125 C 17.25 -17.859375 17.90625 -17.03125 18.4375 -15.96875 C 18.96875 -14.90625 19.234375 -13.53125 19.234375 -11.84375 L 19.234375 0 L 15.484375 0 L 15.484375 -11.890625 C 15.484375 -12.734375 15.351562 -13.445312 15.09375 -14.03125 C 14.832031 -14.613281 14.488281 -15.082031 14.0625 -15.4375 C 13.644531 -15.789062 13.171875 -16.039062 12.640625 -16.1875 C 12.109375 -16.34375 11.554688 -16.421875 10.984375 -16.421875 C 10.546875 -16.421875 10.046875 -16.335938 9.484375 -16.171875 C 8.929688 -16.003906 8.410156 -15.738281 7.921875 -15.375 C 7.429688 -15.007812 7.015625 -14.546875 6.671875 -13.984375 C 6.335938 -13.429688 6.171875 -12.742188 6.171875 -11.921875 Z M 6.171875 0 "/></g></g></g><g fill="#504b8e" fill-opacity="1"><g transform="translate(209.902361, 44.697372)"><g><path d="M 11.390625 -4.078125 C 11.640625 -4.296875 11.859375 -4.539062 12.046875 -4.8125 C 12.234375 -5.09375 12.328125 -5.410156 12.328125 -5.765625 C 12.328125 -6.191406 12.171875 -6.554688 11.859375 -6.859375 C 11.546875 -7.160156 11.164062 -7.410156 10.71875 -7.609375 C 10.269531 -7.816406 9.800781 -7.972656 9.3125 -8.078125 C 8.820312 -8.191406 8.414062 -8.289062 8.09375 -8.375 C 7.1875 -8.59375 6.335938 -8.859375 5.546875 -9.171875 C 4.765625 -9.484375 4.078125 -9.863281 3.484375 -10.3125 C 2.898438 -10.757812 2.4375 -11.289062 2.09375 -11.90625 C 1.757812 -12.519531 1.59375 -13.25 1.59375 -14.09375 C 1.59375 -14.882812 1.78125 -15.625 2.15625 -16.3125 C 2.539062 -17.007812 3.050781 -17.625 3.6875 -18.15625 C 4.332031 -18.6875 5.082031 -19.109375 5.9375 -19.421875 C 6.800781 -19.734375 7.707031 -19.890625 8.65625 -19.890625 C 9.5 -19.890625 10.300781 -19.765625 11.0625 -19.515625 C 11.832031 -19.273438 12.519531 -18.941406 13.125 -18.515625 C 13.738281 -18.097656 14.253906 -17.585938 14.671875 -16.984375 C 15.097656 -16.390625 15.378906 -15.722656 15.515625 -14.984375 L 11.96875 -14.125 C 11.800781 -14.78125 11.445312 -15.328125 10.90625 -15.765625 C 10.363281 -16.203125 9.613281 -16.421875 8.65625 -16.421875 C 8.332031 -16.421875 7.992188 -16.375 7.640625 -16.28125 C 7.285156 -16.1875 6.957031 -16.039062 6.65625 -15.84375 C 6.351562 -15.65625 6.097656 -15.425781 5.890625 -15.15625 C 5.691406 -14.882812 5.59375 -14.570312 5.59375 -14.21875 C 5.59375 -13.832031 5.707031 -13.503906 5.9375 -13.234375 C 6.175781 -12.960938 6.457031 -12.738281 6.78125 -12.5625 C 7.101562 -12.382812 7.453125 -12.238281 7.828125 -12.125 C 8.210938 -12.019531 8.570312 -11.925781 8.90625 -11.84375 C 10.34375 -11.488281 11.535156 -11.109375 12.484375 -10.703125 C 13.441406 -10.296875 14.207031 -9.847656 14.78125 -9.359375 C 15.351562 -8.867188 15.753906 -8.328125 15.984375 -7.734375 C 16.222656 -7.148438 16.34375 -6.492188 16.34375 -5.765625 C 16.34375 -4.890625 16.144531 -4.070312 15.75 -3.3125 C 15.351562 -2.550781 14.804688 -1.890625 14.109375 -1.328125 C 13.410156 -0.765625 12.578125 -0.328125 11.609375 -0.015625 C 10.648438 0.296875 9.613281 0.453125 8.5 0.453125 C 6.8125 0.453125 5.304688 0.0351562 3.984375 -0.796875 C 2.660156 -1.628906 1.769531 -2.738281 1.3125 -4.125 L 4.65625 -5.640625 C 5.09375 -4.679688 5.648438 -4.03125 6.328125 -3.6875 C 7.015625 -3.351562 7.789062 -3.1875 8.65625 -3.1875 C 9.75 -3.1875 10.660156 -3.484375 11.390625 -4.078125 Z M 11.390625 -4.078125 "/></g></g></g><g fill="#504b8e" fill-opacity="1"><g transform="translate(227.460888, 44.697372)"><g><path d="M 11.5625 0.484375 C 10.144531 0.484375 8.816406 0.21875 7.578125 -0.3125 C 6.335938 -0.84375 5.253906 -1.566406 4.328125 -2.484375 C 3.398438 -3.410156 2.671875 -4.5 2.140625 -5.75 C 1.609375 -7.007812 1.34375 -8.347656 1.34375 -9.765625 C 1.34375 -11.179688 1.59375 -12.515625 2.09375 -13.765625 C 2.601562 -15.015625 3.285156 -16.101562 4.140625 -17.03125 C 5.003906 -17.957031 6.003906 -18.6875 7.140625 -19.21875 C 8.285156 -19.75 9.515625 -20.015625 10.828125 -20.015625 C 12.160156 -20.015625 13.390625 -19.78125 14.515625 -19.3125 C 15.648438 -18.851562 16.628906 -18.132812 17.453125 -17.15625 C 18.285156 -16.175781 18.929688 -14.929688 19.390625 -13.421875 C 19.859375 -11.910156 20.09375 -10.101562 20.09375 -8 L 5.5625 -8 C 5.75 -7.289062 6.046875 -6.628906 6.453125 -6.015625 C 6.859375 -5.410156 7.335938 -4.878906 7.890625 -4.421875 C 8.453125 -3.972656 9.082031 -3.625 9.78125 -3.375 C 10.476562 -3.132812 11.207031 -3.015625 11.96875 -3.015625 C 13 -3.015625 13.957031 -3.207031 14.84375 -3.59375 C 15.726562 -3.976562 16.484375 -4.484375 17.109375 -5.109375 L 19.5625 -2.65625 C 18.613281 -1.695312 17.453125 -0.929688 16.078125 -0.359375 C 14.703125 0.203125 13.195312 0.484375 11.5625 0.484375 Z M 10.828125 -16.421875 C 10.203125 -16.421875 9.609375 -16.296875 9.046875 -16.046875 C 8.484375 -15.804688 7.960938 -15.46875 7.484375 -15.03125 C 7.015625 -14.59375 6.609375 -14.070312 6.265625 -13.46875 C 5.929688 -12.875 5.679688 -12.222656 5.515625 -11.515625 L 15.84375 -11.515625 C 15.789062 -12.171875 15.640625 -12.796875 15.390625 -13.390625 C 15.148438 -13.992188 14.8125 -14.519531 14.375 -14.96875 C 13.9375 -15.414062 13.425781 -15.769531 12.84375 -16.03125 C 12.257812 -16.289062 11.585938 -16.421875 10.828125 -16.421875 Z M 10.828125 -16.421875 "/></g></g></g><g fill="#504b8e" fill-opacity="1"><g transform="translate(249.102796, 44.697372)"><g><path d="M 14.09375 -15.921875 C 13.90625 -16.003906 13.710938 -16.085938 13.515625 -16.171875 C 13.359375 -16.222656 13.171875 -16.273438 12.953125 -16.328125 C 12.734375 -16.390625 12.5 -16.421875 12.25 -16.421875 C 11.457031 -16.421875 10.722656 -16.289062 10.046875 -16.03125 C 9.367188 -15.769531 8.785156 -15.421875 8.296875 -14.984375 C 7.804688 -14.554688 7.414062 -14.046875 7.125 -13.453125 C 6.84375 -12.867188 6.703125 -12.25 6.703125 -11.59375 L 6.65625 0 L 2.703125 0 L 2.703125 -19.5625 L 5.84375 -19.5625 L 6.65625 -17.40625 C 7.195312 -18.1875 7.910156 -18.816406 8.796875 -19.296875 C 9.679688 -19.773438 10.789062 -20.015625 12.125 -20.015625 C 13 -20.015625 13.992188 -19.890625 15.109375 -19.640625 Z M 14.09375 -15.921875 "/></g></g></g><g clip-path="url(#ae7a0e5653)"><path fill="#d8e3ff" d="M 66.839844 33.84375 C 66.839844 51.273438 52.71875 65.40625 35.289062 65.414062 C 17.863281 65.417969 3.726562 51.292969 3.722656 33.863281 C 3.71875 16.4375 17.84375 2.304688 35.269531 2.296875 L 35.28125 2.296875 C 52.707031 2.296875 66.832031 16.421875 66.839844 33.84375 Z M 66.839844 33.84375 " fill-opacity="1" fill-rule="nonzero"/></g><g clip-path="url(#dad298de02)"><path fill="#ffffff" d="M 35.28125 65.742188 C 33.710938 65.742188 32.152344 65.625 30.601562 65.394531 C 29.050781 65.164062 27.527344 64.824219 26.027344 64.367188 C 24.527344 63.914062 23.066406 63.351562 21.648438 62.679688 C 20.230469 62.007812 18.871094 61.238281 17.566406 60.367188 C 16.265625 59.496094 15.03125 58.535156 13.871094 57.484375 C 12.707031 56.429688 11.628906 55.296875 10.636719 54.085938 C 9.640625 52.875 8.738281 51.597656 7.933594 50.25 C 7.128906 48.90625 6.425781 47.511719 5.824219 46.0625 C 5.222656 44.613281 4.734375 43.128906 4.351562 41.609375 C 3.972656 40.085938 3.703125 38.546875 3.550781 36.988281 C 3.394531 35.425781 3.355469 33.863281 3.433594 32.296875 C 3.511719 30.730469 3.703125 29.179688 4.007812 27.640625 C 4.3125 26.105469 4.730469 24.597656 5.257812 23.121094 C 5.785156 21.644531 6.417969 20.214844 7.15625 18.832031 C 7.894531 17.449219 8.730469 16.128906 9.664062 14.871094 C 10.597656 13.609375 11.621094 12.425781 12.726562 11.316406 C 13.464844 10.578125 14.238281 9.878906 15.046875 9.214844 C 15.851562 8.550781 16.691406 7.929688 17.558594 7.351562 C 18.425781 6.769531 19.320312 6.234375 20.242188 5.742188 C 21.164062 5.25 22.105469 4.800781 23.070312 4.402344 C 24.035156 4.003906 25.015625 3.648438 26.015625 3.347656 C 27.015625 3.042969 28.027344 2.789062 29.050781 2.585938 C 30.074219 2.382812 31.105469 2.226562 32.144531 2.125 C 33.183594 2.023438 34.226562 1.972656 35.269531 1.972656 C 36.316406 1.972656 37.355469 2.023438 38.394531 2.125 C 39.4375 2.226562 40.46875 2.378906 41.492188 2.582031 C 42.515625 2.785156 43.527344 3.039062 44.527344 3.339844 C 45.527344 3.644531 46.507812 3.996094 47.472656 4.394531 C 48.4375 4.792969 49.382812 5.238281 50.300781 5.730469 C 51.222656 6.222656 52.117188 6.757812 52.988281 7.339844 C 53.855469 7.917969 54.695312 8.539062 55.5 9.203125 C 56.308594 9.863281 57.082031 10.566406 57.820312 11.304688 C 58.558594 12.042969 59.257812 12.8125 59.921875 13.621094 C 60.585938 14.429688 61.207031 15.265625 61.785156 16.132812 C 62.367188 17 62.902344 17.894531 63.394531 18.816406 C 63.890625 19.738281 64.335938 20.679688 64.734375 21.644531 C 65.136719 22.609375 65.488281 23.59375 65.789062 24.589844 C 66.09375 25.589844 66.347656 26.601562 66.550781 27.625 C 66.753906 28.648438 66.910156 29.683594 67.011719 30.722656 C 67.113281 31.761719 67.164062 32.800781 67.164062 33.847656 C 67.164062 34.890625 67.113281 35.933594 67.011719 36.972656 C 66.910156 38.011719 66.757812 39.042969 66.554688 40.066406 C 66.351562 41.089844 66.097656 42.101562 65.796875 43.101562 C 65.492188 44.101562 65.140625 45.082031 64.742188 46.050781 C 64.34375 47.015625 63.898438 47.957031 63.40625 48.878906 C 62.914062 49.800781 62.378906 50.695312 61.796875 51.5625 C 61.21875 52.429688 60.597656 53.269531 59.933594 54.074219 C 59.273438 54.882812 58.570312 55.65625 57.832031 56.394531 C 56.355469 57.878906 54.75 59.207031 53.007812 60.371094 C 51.269531 61.539062 49.433594 62.523438 47.5 63.324219 C 45.5625 64.128906 43.570312 64.730469 41.515625 65.136719 C 39.460938 65.542969 37.386719 65.746094 35.289062 65.742188 Z M 35.28125 2.625 C 33.746094 2.625 32.214844 2.738281 30.695312 2.964844 C 29.179688 3.1875 27.683594 3.523438 26.214844 3.96875 C 24.742188 4.417969 23.316406 4.96875 21.925781 5.625 C 20.539062 6.28125 19.203125 7.035156 17.929688 7.890625 C 16.652344 8.742188 15.441406 9.6875 14.304688 10.71875 C 13.167969 11.75 12.109375 12.859375 11.136719 14.046875 C 10.164062 15.234375 9.28125 16.488281 8.492188 17.804688 C 7.703125 19.121094 7.011719 20.488281 6.425781 21.910156 C 5.839844 23.328125 5.359375 24.78125 4.984375 26.273438 C 4.613281 27.761719 4.351562 29.273438 4.199219 30.800781 C 4.050781 32.328125 4.011719 33.859375 4.089844 35.394531 C 4.164062 36.929688 4.351562 38.449219 4.652344 39.957031 C 4.953125 41.460938 5.359375 42.9375 5.878906 44.382812 C 6.398438 45.832031 7.019531 47.230469 7.742188 48.585938 C 8.464844 49.941406 9.285156 51.234375 10.203125 52.46875 C 11.117188 53.699219 12.117188 54.859375 13.203125 55.945312 C 14.652344 57.398438 16.226562 58.695312 17.929688 59.839844 C 19.632812 60.980469 21.433594 61.941406 23.328125 62.726562 C 25.222656 63.511719 27.175781 64.101562 29.1875 64.5 C 31.199219 64.894531 33.230469 65.089844 35.28125 65.085938 L 35.289062 65.085938 C 36.3125 65.085938 37.332031 65.035156 38.351562 64.933594 C 39.371094 64.835938 40.378906 64.683594 41.382812 64.484375 C 42.386719 64.285156 43.378906 64.035156 44.355469 63.738281 C 45.335938 63.441406 46.296875 63.097656 47.242188 62.703125 C 48.1875 62.3125 49.109375 61.875 50.011719 61.394531 C 50.914062 60.910156 51.789062 60.386719 52.640625 59.816406 C 53.488281 59.25 54.3125 58.640625 55.101562 57.992188 C 55.890625 57.339844 56.648438 56.65625 57.371094 55.933594 C 58.09375 55.207031 58.78125 54.453125 59.429688 53.660156 C 60.078125 52.871094 60.6875 52.046875 61.253906 51.199219 C 61.820312 50.347656 62.347656 49.472656 62.828125 48.570312 C 63.308594 47.667969 63.746094 46.742188 64.136719 45.796875 C 64.527344 44.851562 64.871094 43.890625 65.167969 42.910156 C 65.464844 41.933594 65.714844 40.941406 65.914062 39.9375 C 66.113281 38.933594 66.261719 37.925781 66.363281 36.90625 C 66.460938 35.890625 66.511719 34.867188 66.511719 33.84375 C 66.511719 32.824219 66.460938 31.800781 66.359375 30.785156 C 66.257812 29.765625 66.109375 28.757812 65.910156 27.753906 C 65.710938 26.75 65.460938 25.761719 65.164062 24.78125 C 64.867188 23.804688 64.523438 22.839844 64.132812 21.898438 C 63.738281 20.953125 63.304688 20.027344 62.820312 19.128906 C 62.339844 18.226562 61.8125 17.347656 61.246094 16.5 C 60.675781 15.648438 60.066406 14.828125 59.417969 14.039062 C 58.769531 13.246094 58.082031 12.492188 57.359375 11.769531 C 56.636719 11.046875 55.878906 10.359375 55.089844 9.710938 C 54.300781 9.0625 53.480469 8.453125 52.628906 7.886719 C 51.777344 7.316406 50.902344 6.792969 50 6.3125 C 49.097656 5.828125 48.175781 5.390625 47.230469 5 C 46.285156 4.609375 45.324219 4.265625 44.34375 3.96875 C 43.367188 3.671875 42.375 3.425781 41.371094 3.222656 C 40.367188 3.023438 39.359375 2.875 38.339844 2.773438 C 37.324219 2.675781 36.304688 2.625 35.28125 2.625 Z M 35.28125 2.625 " fill-opacity="1" fill-rule="nonzero"/></g><g clip-path="url(#f95266d1f2)"><path fill="#504b8e" d="M 63.722656 54.808594 L 63.535156 54.523438 C 63.515625 54.492188 61.421875 51.375 56.746094 50.046875 C 52.191406 48.746094 49.21875 49.835938 42.03125 52.476562 C 41.660156 52.613281 41.261719 52.75 40.851562 52.894531 C 38.742188 53.632812 36.273438 54.5 34.417969 55.957031 C 34.371094 56 34.324219 56.039062 34.269531 56.074219 C 33.550781 56.664062 32.929688 57.347656 32.46875 58.15625 C 32.40625 58.269531 32.445312 58.371094 32.488281 58.433594 C 32.53125 58.488281 32.636719 58.582031 32.773438 58.554688 C 33.53125 58.425781 34.394531 58.273438 35.3125 58.097656 C 43.945312 56.449219 49.21875 58.105469 48.714844 58.105469 C 45.445312 58.105469 39.777344 59.140625 35.640625 59.894531 C 34.714844 60.0625 33.851562 60.21875 33.085938 60.355469 C 32.28125 60.488281 31.476562 60.164062 30.996094 59.484375 C 30.523438 58.8125 30.484375 57.960938 30.882812 57.253906 C 31.210938 56.675781 31.601562 56.152344 32.042969 55.675781 C 29.332031 54.777344 23.320312 52.953125 19.140625 52.953125 C 19.085938 52.953125 19.035156 52.953125 18.984375 52.953125 C 16.421875 52.984375 15.035156 54.15625 14.324219 55.136719 C 14.234375 55.253906 14.253906 55.375 14.269531 55.4375 C 14.289062 55.496094 14.339844 55.609375 14.484375 55.664062 L 37.46875 64.613281 C 37.722656 64.710938 37.980469 64.730469 38.242188 64.679688 C 42.25 63.824219 51.773438 61.839844 53.671875 61.839844 C 55.648438 61.839844 64.761719 65.4375 68.464844 66.929688 L 69.121094 56.378906 L 63.722656 54.808594 " fill-opacity="1" fill-rule="nonzero"/></g><path fill="#504b8e" d="M 16.546875 26.414062 C 17.277344 26.625 18.03125 26.199219 18.238281 25.472656 C 20.613281 17.140625 28.570312 11.878906 37.164062 12.964844 C 44.78125 13.921875 50.835938 19.894531 52.125 27.300781 L 50.375 25.996094 C 49.769531 25.542969 48.910156 25.667969 48.460938 26.273438 C 48.007812 26.878906 48.132812 27.734375 48.738281 28.1875 L 53.070312 31.425781 C 53.308594 31.601562 53.597656 31.695312 53.890625 31.695312 C 53.957031 31.695312 54.019531 31.691406 54.085938 31.683594 C 54.445312 31.632812 54.769531 31.4375 54.988281 31.148438 L 58.222656 26.816406 C 58.675781 26.210938 58.550781 25.351562 57.945312 24.898438 C 57.339844 24.445312 56.480469 24.574219 56.03125 25.179688 L 54.820312 26.796875 C 53.347656 18.136719 46.464844 11.375 37.503906 10.25 C 27.570312 8.996094 18.355469 15.082031 15.605469 24.722656 C 15.398438 25.453125 15.820312 26.207031 16.546875 26.414062 " fill-opacity="1" fill-rule="nonzero"/><g clip-path="url(#c08088dea5)"><path fill="#504b8e" d="M 32.574219 50.34375 C 33.441406 50.453125 34.300781 50.507812 35.15625 50.507812 C 44.070312 50.507812 51.964844 44.667969 54.472656 35.867188 C 54.679688 35.140625 54.257812 34.382812 53.527344 34.179688 C 52.796875 33.96875 52.046875 34.394531 51.839844 35.117188 C 49.464844 43.453125 41.496094 48.707031 32.914062 47.628906 C 25.3125 46.671875 19.269531 40.730469 17.960938 33.347656 L 19.636719 34.652344 C 20.230469 35.117188 21.089844 35.007812 21.554688 34.414062 C 22.019531 33.820312 21.914062 32.960938 21.316406 32.496094 L 17.054688 29.167969 C 16.457031 28.699219 15.597656 28.8125 15.132812 29.40625 L 11.808594 33.667969 C 11.34375 34.265625 11.449219 35.125 12.046875 35.589844 C 12.296875 35.785156 12.589844 35.878906 12.886719 35.878906 C 13.292969 35.878906 13.695312 35.699219 13.964844 35.351562 L 15.242188 33.71875 C 16.6875 42.414062 23.585938 49.214844 32.574219 50.34375 " fill-opacity="1" fill-rule="nonzero"/></g><path fill="#504b8e" d="M 31.972656 26.6875 C 31.996094 26.945312 32.054688 27.199219 32.148438 27.46875 C 32.222656 27.667969 32.367188 27.875 32.558594 28.054688 C 32.800781 28.292969 33.128906 28.515625 33.582031 28.75 C 33.785156 28.847656 34.027344 28.9375 34.316406 29.011719 L 34.316406 23.863281 C 33.640625 24.007812 33.113281 24.28125 32.722656 24.6875 C 32.179688 25.261719 31.933594 25.917969 31.972656 26.6875 " fill-opacity="1" fill-rule="nonzero"/><path fill="#504b8e" d="M 37.203125 32.210938 L 37.203125 36.753906 C 37.355469 36.710938 37.488281 36.65625 37.597656 36.597656 C 37.996094 36.382812 38.214844 36.175781 38.328125 36.039062 C 38.46875 35.855469 38.578125 35.660156 38.636719 35.472656 C 38.738281 35.160156 38.742188 35.03125 38.742188 35.015625 C 38.742188 35.007812 38.742188 35.003906 38.742188 34.996094 C 38.765625 34.035156 38.578125 33.316406 38.191406 32.863281 C 37.960938 32.605469 37.628906 32.382812 37.203125 32.210938 " fill-opacity="1" fill-rule="nonzero"/><path fill="#504b8e" d="M 41.339844 35.101562 C 41.269531 36.113281 40.835938 37.078125 40.046875 37.945312 C 39.386719 38.675781 38.433594 39.15625 37.203125 39.371094 L 37.203125 39.839844 C 37.203125 40.316406 37.007812 40.71875 36.65625 40.976562 C 36.378906 41.179688 36.0625 41.289062 35.738281 41.289062 C 35.402344 41.289062 35.078125 41.171875 34.808594 40.953125 C 34.578125 40.761719 34.320312 40.421875 34.320312 39.839844 L 34.320312 39.417969 C 33.050781 39.269531 31.925781 38.890625 30.972656 38.289062 C 29.730469 37.496094 28.960938 36.339844 28.683594 34.851562 C 28.554688 34.347656 28.773438 33.980469 28.914062 33.808594 C 29.054688 33.636719 29.382812 33.355469 29.96875 33.398438 C 30.667969 33.417969 31.195312 33.867188 31.277344 34.539062 C 31.417969 35.109375 31.796875 35.664062 32.414062 36.128906 C 32.875 36.476562 33.511719 36.710938 34.320312 36.832031 L 34.316406 31.671875 C 32.996094 31.464844 31.894531 31 31.035156 30.285156 C 30.015625 29.394531 29.425781 28.25 29.265625 26.859375 C 29.195312 26.089844 29.296875 25.355469 29.570312 24.648438 C 29.859375 23.945312 30.265625 23.347656 30.789062 22.855469 C 31.296875 22.359375 31.933594 21.964844 32.730469 21.660156 C 33.242188 21.472656 33.765625 21.34375 34.316406 21.265625 L 34.316406 20.757812 C 34.316406 20.21875 34.554688 19.882812 34.757812 19.695312 C 35.359375 19.171875 36.117188 19.195312 36.683594 19.644531 C 37.03125 19.953125 37.203125 20.335938 37.203125 20.757812 L 37.203125 21.417969 C 38.207031 21.664062 39.0625 22.132812 39.75 22.816406 C 40.65625 23.707031 41.132812 24.902344 41.171875 26.367188 C 41.175781 26.4375 41.167969 26.511719 41.152344 26.582031 C 41.003906 27.253906 40.554688 27.699219 39.945312 27.773438 C 39.207031 27.867188 38.644531 27.371094 38.554688 26.613281 C 38.523438 26.289062 38.460938 25.980469 38.355469 25.65625 C 38.261719 25.375 38.113281 25.105469 37.933594 24.890625 C 37.722656 24.636719 37.480469 24.410156 37.203125 24.21875 L 37.203125 29.488281 C 37.933594 29.675781 38.539062 29.925781 39.035156 30.246094 C 39.660156 30.632812 40.175781 31.117188 40.554688 31.671875 C 40.921875 32.25 41.152344 32.839844 41.25 33.445312 C 41.363281 34.015625 41.390625 34.566406 41.339844 35.101562 Z M 34.882812 17.3125 C 27.710938 17.382812 21.953125 23.25 22.023438 30.421875 C 22.089844 37.59375 27.960938 43.347656 35.132812 43.28125 C 42.300781 43.214844 48.058594 37.34375 47.992188 30.171875 C 47.921875 23 42.054688 17.246094 34.882812 17.3125 " fill-opacity="1" fill-rule="nonzero"/></svg>